<svg width="462" height="462" viewBox="0 0 462 462" xmlns="http://www.w3.org/2000/svg"><rect x="0" y="0" width="462" height="462" fill="#18461e" rx="34.56" ry="34.56"/><rect x="8" y="8" width="446" height="446" fill="#FFFFFF" rx="26.560000000000002" ry="26.560000000000002"/><g fill="#000000" shape-rendering="crispEdges"><path d="M 36 32 L 48 32 L 48 48 L 32 48 L 32 36 A 4 4 0 0 1 36 32 Z"/><path d="M 48 32 L 64 32 L 64 48 L 48 48 L 48 32 Z"/><path d="M 64 32 L 80 32 L 80 48 L 64 48 L 64 32 Z"/><path d="M 80 32 L 96 32 L 96 48 L 80 48 L 80 32 Z"/><path d="M 96 32 L 112 32 L 112 48 L 96 48 L 96 32 Z"/><path d="M 112 32 L 128 32 L 128 48 L 112 48 L 112 32 Z"/><path d="M 128 32 L 140 32 A 4 4 0 0 1 144 36 L 144 48 L 128 48 L 128 32 Z"/><circle cx="183" cy="39" r="7"/><circle cx="231" cy="39" r="7"/><circle cx="247" cy="39" r="7"/><circle cx="263" cy="39" r="7"/><circle cx="279" cy="39" r="7"/><path d="M 324 32 L 336 32 L 336 48 L 320 48 L 320 36 A 4 4 0 0 1 324 32 Z"/><path d="M 336 32 L 352 32 L 352 48 L 336 48 L 336 32 Z"/><path d="M 352 32 L 368 32 L 368 48 L 352 48 L 352 32 Z"/><path d="M 368 32 L 384 32 L 384 48 L 368 48 L 368 32 Z"/><path d="M 384 32 L 400 32 L 400 48 L 384 48 L 384 32 Z"/><path d="M 400 32 L 416 32 L 416 48 L 400 48 L 400 32 Z"/><path d="M 416 32 L 428 32 A 4 4 0 0 1 432 36 L 432 48 L 416 48 L 416 32 Z"/><path d="M 32 48 L 48 48 L 48 64 L 32 64 L 32 48 Z"/><path d="M 128 48 L 144 48 L 144 64 L 128 64 L 128 48 Z"/><circle cx="167" cy="55" r="7"/><circle cx="183" cy="55" r="7"/><circle cx="215" cy="55" r="7"/><circle cx="263" cy="55" r="7"/><circle cx="279" cy="55" r="7"/><path d="M 320 48 L 336 48 L 336 64 L 320 64 L 320 48 Z"/><path d="M 416 48 L 432 48 L 432 64 L 416 64 L 416 48 Z"/><path d="M 32 64 L 48 64 L 48 80 L 32 80 L 32 64 Z"/><path d="M 68 64 L 80 64 L 80 80 L 64 80 L 64 68 A 4 4 0 0 1 68 64 Z"/><path d="M 80 64 L 96 64 L 96 80 L 80 80 L 80 64 Z"/><path d="M 96 64 L 108 64 A 4 4 0 0 1 112 68 L 112 80 L 96 80 L 96 64 Z"/><path d="M 128 64 L 144 64 L 144 80 L 128 80 L 128 64 Z"/><circle cx="231" cy="71" r="7"/><path d="M 320 64 L 336 64 L 336 80 L 320 80 L 320 64 Z"/><path d="M 356 64 L 368 64 L 368 80 L 352 80 L 352 68 A 4 4 0 0 1 356 64 Z"/><path d="M 368 64 L 384 64 L 384 80 L 368 80 L 368 64 Z"/><path d="M 384 64 L 396 64 A 4 4 0 0 1 400 68 L 400 80 L 384 80 L 384 64 Z"/><path d="M 416 64 L 432 64 L 432 80 L 416 80 L 416 64 Z"/><path d="M 32 80 L 48 80 L 48 96 L 32 96 L 32 80 Z"/><path d="M 64 80 L 80 80 L 80 96 L 64 96 L 64 80 Z"/><path d="M 80 80 L 96 80 L 96 96 L 80 96 L 80 80 Z"/><path d="M 96 80 L 112 80 L 112 96 L 96 96 L 96 80 Z"/><path d="M 128 80 L 144 80 L 144 96 L 128 96 L 128 80 Z"/><circle cx="183" cy="87" r="7"/><circle cx="215" cy="87" r="7"/><circle cx="279" cy="87" r="7"/><circle cx="295" cy="87" r="7"/><path d="M 320 80 L 336 80 L 336 96 L 320 96 L 320 80 Z"/><path d="M 352 80 L 368 80 L 368 96 L 352 96 L 352 80 Z"/><path d="M 368 80 L 384 80 L 384 96 L 368 96 L 368 80 Z"/><path d="M 384 80 L 400 80 L 400 96 L 384 96 L 384 80 Z"/><path d="M 416 80 L 432 80 L 432 96 L 416 96 L 416 80 Z"/><path d="M 32 96 L 48 96 L 48 112 L 32 112 L 32 96 Z"/><path d="M 64 96 L 80 96 L 80 112 L 68 112 A 4 4 0 0 1 64 108 L 64 96 Z"/><path d="M 80 96 L 96 96 L 96 112 L 80 112 L 80 96 Z"/><path d="M 96 96 L 112 96 L 112 108 A 4 4 0 0 1 108 112 L 96 112 L 96 96 Z"/><path d="M 128 96 L 144 96 L 144 112 L 128 112 L 128 96 Z"/><circle cx="167" cy="103" r="7"/><circle cx="247" cy="103" r="7"/><circle cx="263" cy="103" r="7"/><circle cx="279" cy="103" r="7"/><path d="M 320 96 L 336 96 L 336 112 L 320 112 L 320 96 Z"/><path d="M 352 96 L 368 96 L 368 112 L 356 112 A 4 4 0 0 1 352 108 L 352 96 Z"/><path d="M 368 96 L 384 96 L 384 112 L 368 112 L 368 96 Z"/><path d="M 384 96 L 400 96 L 400 108 A 4 4 0 0 1 396 112 L 384 112 L 384 96 Z"/><path d="M 416 96 L 432 96 L 432 112 L 416 112 L 416 96 Z"/><path d="M 32 112 L 48 112 L 48 128 L 32 128 L 32 112 Z"/><path d="M 128 112 L 144 112 L 144 128 L 128 128 L 128 112 Z"/><circle cx="215" cy="119" r="7"/><circle cx="263" cy="119" r="7"/><circle cx="279" cy="119" r="7"/><path d="M 320 112 L 336 112 L 336 128 L 320 128 L 320 112 Z"/><path d="M 416 112 L 432 112 L 432 128 L 416 128 L 416 112 Z"/><path d="M 32 128 L 48 128 L 48 144 L 36 144 A 4 4 0 0 1 32 140 L 32 128 Z"/><path d="M 48 128 L 64 128 L 64 144 L 48 144 L 48 128 Z"/><path d="M 64 128 L 80 128 L 80 144 L 64 144 L 64 128 Z"/><path d="M 80 128 L 96 128 L 96 144 L 80 144 L 80 128 Z"/><path d="M 96 128 L 112 128 L 112 144 L 96 144 L 96 128 Z"/><path d="M 112 128 L 128 128 L 128 144 L 112 144 L 112 128 Z"/><path d="M 128 128 L 144 128 L 144 140 A 4 4 0 0 1 140 144 L 128 144 L 128 128 Z"/><circle cx="167" cy="135" r="7"/><circle cx="199" cy="135" r="7"/><circle cx="231" cy="135" r="7"/><circle cx="263" cy="135" r="7"/><circle cx="295" cy="135" r="7"/><path d="M 320 128 L 336 128 L 336 144 L 324 144 A 4 4 0 0 1 320 140 L 320 128 Z"/><path d="M 336 128 L 352 128 L 352 144 L 336 144 L 336 128 Z"/><path d="M 352 128 L 368 128 L 368 144 L 352 144 L 352 128 Z"/><path d="M 368 128 L 384 128 L 384 144 L 368 144 L 368 128 Z"/><path d="M 384 128 L 400 128 L 400 144 L 384 144 L 384 128 Z"/><path d="M 400 128 L 416 128 L 416 144 L 400 144 L 400 128 Z"/><path d="M 416 128 L 432 128 L 432 140 A 4 4 0 0 1 428 144 L 416 144 L 416 128 Z"/><circle cx="199" cy="151" r="7"/><circle cx="247" cy="151" r="7"/><circle cx="263" cy="151" r="7"/><circle cx="295" cy="151" r="7"/><circle cx="39" cy="167" r="7"/><circle cx="71" cy="167" r="7"/><circle cx="103" cy="167" r="7"/><circle cx="135" cy="167" r="7"/><circle cx="183" cy="167" r="7"/><circle cx="247" cy="167" r="7"/><circle cx="279" cy="167" r="7"/><circle cx="295" cy="167" r="7"/><circle cx="359" cy="167" r="7"/><circle cx="407" cy="167" r="7"/><circle cx="39" cy="183" r="7"/><circle cx="55" cy="183" r="7"/><circle cx="71" cy="183" r="7"/><circle cx="87" cy="183" r="7"/><circle cx="119" cy="183" r="7"/><circle cx="199" cy="183" r="7"/><circle cx="247" cy="183" r="7"/><circle cx="263" cy="183" r="7"/><circle cx="311" cy="183" r="7"/><circle cx="327" cy="183" r="7"/><circle cx="423" cy="183" r="7"/><circle cx="39" cy="199" r="7"/><circle cx="55" cy="199" r="7"/><circle cx="87" cy="199" r="7"/><circle cx="103" cy="199" r="7"/><circle cx="135" cy="199" r="7"/><circle cx="183" cy="199" r="7"/><circle cx="247" cy="199" r="7"/><circle cx="311" cy="199" r="7"/><circle cx="343" cy="199" r="7"/><circle cx="391" cy="199" r="7"/><circle cx="407" cy="199" r="7"/><circle cx="423" cy="199" r="7"/><circle cx="55" cy="215" r="7"/><circle cx="103" cy="215" r="7"/><circle cx="119" cy="215" r="7"/><circle cx="167" cy="215" r="7"/><circle cx="183" cy="215" r="7"/><circle cx="199" cy="215" r="7"/><circle cx="215" cy="215" r="7"/><circle cx="247" cy="215" r="7"/><circle cx="263" cy="215" r="7"/><circle cx="311" cy="215" r="7"/><circle cx="327" cy="215" r="7"/><circle cx="359" cy="215" r="7"/><circle cx="407" cy="215" r="7"/><circle cx="71" cy="231" r="7"/><circle cx="87" cy="231" r="7"/><circle cx="103" cy="231" r="7"/><circle cx="135" cy="231" r="7"/><circle cx="151" cy="231" r="7"/><circle cx="167" cy="231" r="7"/><circle cx="231" cy="231" r="7"/><circle cx="247" cy="231" r="7"/><circle cx="279" cy="231" r="7"/><circle cx="295" cy="231" r="7"/><circle cx="311" cy="231" r="7"/><circle cx="327" cy="231" r="7"/><circle cx="375" cy="231" r="7"/><circle cx="407" cy="231" r="7"/><circle cx="423" cy="231" r="7"/><circle cx="71" cy="247" r="7"/><circle cx="87" cy="247" r="7"/><circle cx="103" cy="247" r="7"/><circle cx="151" cy="247" r="7"/><circle cx="199" cy="247" r="7"/><circle cx="215" cy="247" r="7"/><circle cx="231" cy="247" r="7"/><circle cx="247" cy="247" r="7"/><circle cx="263" cy="247" r="7"/><circle cx="295" cy="247" r="7"/><circle cx="311" cy="247" r="7"/><circle cx="327" cy="247" r="7"/><circle cx="375" cy="247" r="7"/><circle cx="423" cy="247" r="7"/><circle cx="39" cy="263" r="7"/><circle cx="71" cy="263" r="7"/><circle cx="87" cy="263" r="7"/><circle cx="135" cy="263" r="7"/><circle cx="183" cy="263" r="7"/><circle cx="215" cy="263" r="7"/><circle cx="231" cy="263" r="7"/><circle cx="247" cy="263" r="7"/><circle cx="295" cy="263" r="7"/><circle cx="311" cy="263" r="7"/><circle cx="327" cy="263" r="7"/><circle cx="343" cy="263" r="7"/><circle cx="391" cy="263" r="7"/><circle cx="407" cy="263" r="7"/><circle cx="423" cy="263" r="7"/><circle cx="55" cy="279" r="7"/><circle cx="71" cy="279" r="7"/><circle cx="103" cy="279" r="7"/><circle cx="119" cy="279" r="7"/><circle cx="183" cy="279" r="7"/><circle cx="231" cy="279" r="7"/><circle cx="247" cy="279" r="7"/><circle cx="295" cy="279" r="7"/><circle cx="359" cy="279" r="7"/><circle cx="407" cy="279" r="7"/><circle cx="39" cy="295" r="7"/><circle cx="103" cy="295" r="7"/><circle cx="135" cy="295" r="7"/><circle cx="183" cy="295" r="7"/><circle cx="215" cy="295" r="7"/><circle cx="231" cy="295" r="7"/><circle cx="247" cy="295" r="7"/><circle cx="279" cy="295" r="7"/><circle cx="295" cy="295" r="7"/><circle cx="311" cy="295" r="7"/><circle cx="327" cy="295" r="7"/><circle cx="343" cy="295" r="7"/><circle cx="359" cy="295" r="7"/><circle cx="375" cy="295" r="7"/><circle cx="167" cy="311" r="7"/><circle cx="183" cy="311" r="7"/><circle cx="199" cy="311" r="7"/><circle cx="215" cy="311" r="7"/><circle cx="279" cy="311" r="7"/><circle cx="295" cy="311" r="7"/><circle cx="359" cy="311" r="7"/><circle cx="375" cy="311" r="7"/><circle cx="407" cy="311" r="7"/><circle cx="423" cy="311" r="7"/><path d="M 36 320 L 48 320 L 48 336 L 32 336 L 32 324 A 4 4 0 0 1 36 320 Z"/><path d="M 48 320 L 64 320 L 64 336 L 48 336 L 48 320 Z"/><path d="M 64 320 L 80 320 L 80 336 L 64 336 L 64 320 Z"/><path d="M 80 320 L 96 320 L 96 336 L 80 336 L 80 320 Z"/><path d="M 96 320 L 112 320 L 112 336 L 96 336 L 96 320 Z"/><path d="M 112 320 L 128 320 L 128 336 L 112 336 L 112 320 Z"/><path d="M 128 320 L 140 320 A 4 4 0 0 1 144 324 L 144 336 L 128 336 L 128 320 Z"/><circle cx="183" cy="327" r="7"/><circle cx="247" cy="327" r="7"/><circle cx="279" cy="327" r="7"/><circle cx="295" cy="327" r="7"/><circle cx="327" cy="327" r="7"/><circle cx="359" cy="327" r="7"/><circle cx="375" cy="327" r="7"/><circle cx="407" cy="327" r="7"/><circle cx="423" cy="327" r="7"/><path d="M 32 336 L 48 336 L 48 352 L 32 352 L 32 336 Z"/><path d="M 128 336 L 144 336 L 144 352 L 128 352 L 128 336 Z"/><circle cx="215" cy="343" r="7"/><circle cx="231" cy="343" r="7"/><circle cx="247" cy="343" r="7"/><circle cx="295" cy="343" r="7"/><circle cx="359" cy="343" r="7"/><circle cx="375" cy="343" r="7"/><path d="M 32 352 L 48 352 L 48 368 L 32 368 L 32 352 Z"/><path d="M 68 352 L 80 352 L 80 368 L 64 368 L 64 356 A 4 4 0 0 1 68 352 Z"/><path d="M 80 352 L 96 352 L 96 368 L 80 368 L 80 352 Z"/><path d="M 96 352 L 108 352 A 4 4 0 0 1 112 356 L 112 368 L 96 368 L 96 352 Z"/><path d="M 128 352 L 144 352 L 144 368 L 128 368 L 128 352 Z"/><circle cx="167" cy="359" r="7"/><circle cx="183" cy="359" r="7"/><circle cx="199" cy="359" r="7"/><circle cx="215" cy="359" r="7"/><circle cx="231" cy="359" r="7"/><circle cx="247" cy="359" r="7"/><circle cx="295" cy="359" r="7"/><circle cx="311" cy="359" r="7"/><circle cx="327" cy="359" r="7"/><circle cx="343" cy="359" r="7"/><circle cx="359" cy="359" r="7"/><circle cx="375" cy="359" r="7"/><path d="M 32 368 L 48 368 L 48 384 L 32 384 L 32 368 Z"/><path d="M 64 368 L 80 368 L 80 384 L 64 384 L 64 368 Z"/><path d="M 80 368 L 96 368 L 96 384 L 80 384 L 80 368 Z"/><path d="M 96 368 L 112 368 L 112 384 L 96 384 L 96 368 Z"/><path d="M 128 368 L 144 368 L 144 384 L 128 384 L 128 368 Z"/><circle cx="183" cy="375" r="7"/><circle cx="231" cy="375" r="7"/><circle cx="247" cy="375" r="7"/><circle cx="263" cy="375" r="7"/><circle cx="343" cy="375" r="7"/><circle cx="359" cy="375" r="7"/><circle cx="375" cy="375" r="7"/><circle cx="391" cy="375" r="7"/><path d="M 32 384 L 48 384 L 48 400 L 32 400 L 32 384 Z"/><path d="M 64 384 L 80 384 L 80 400 L 68 400 A 4 4 0 0 1 64 396 L 64 384 Z"/><path d="M 80 384 L 96 384 L 96 400 L 80 400 L 80 384 Z"/><path d="M 96 384 L 112 384 L 112 396 A 4 4 0 0 1 108 400 L 96 400 L 96 384 Z"/><path d="M 128 384 L 144 384 L 144 400 L 128 400 L 128 384 Z"/><circle cx="167" cy="391" r="7"/><circle cx="183" cy="391" r="7"/><circle cx="199" cy="391" r="7"/><circle cx="231" cy="391" r="7"/><circle cx="359" cy="391" r="7"/><circle cx="423" cy="391" r="7"/><path d="M 32 400 L 48 400 L 48 416 L 32 416 L 32 400 Z"/><path d="M 128 400 L 144 400 L 144 416 L 128 416 L 128 400 Z"/><circle cx="183" cy="407" r="7"/><circle cx="199" cy="407" r="7"/><circle cx="231" cy="407" r="7"/><circle cx="247" cy="407" r="7"/><circle cx="263" cy="407" r="7"/><circle cx="279" cy="407" r="7"/><circle cx="295" cy="407" r="7"/><circle cx="327" cy="407" r="7"/><circle cx="359" cy="407" r="7"/><circle cx="375" cy="407" r="7"/><circle cx="407" cy="407" r="7"/><path d="M 32 416 L 48 416 L 48 432 L 36 432 A 4 4 0 0 1 32 428 L 32 416 Z"/><path d="M 48 416 L 64 416 L 64 432 L 48 432 L 48 416 Z"/><path d="M 64 416 L 80 416 L 80 432 L 64 432 L 64 416 Z"/><path d="M 80 416 L 96 416 L 96 432 L 80 432 L 80 416 Z"/><path d="M 96 416 L 112 416 L 112 432 L 96 432 L 96 416 Z"/><path d="M 112 416 L 128 416 L 128 432 L 112 432 L 112 416 Z"/><path d="M 128 416 L 144 416 L 144 428 A 4 4 0 0 1 140 432 L 128 432 L 128 416 Z"/><circle cx="167" cy="423" r="7"/><circle cx="183" cy="423" r="7"/><circle cx="231" cy="423" r="7"/><circle cx="247" cy="423" r="7"/><circle cx="279" cy="423" r="7"/><circle cx="295" cy="423" r="7"/><circle cx="327" cy="423" r="7"/><circle cx="343" cy="423" r="7"/><circle cx="407" cy="423" r="7"/><circle cx="423" cy="423" r="7"/><path d="M 48 48 L 52 48 A 4 4 0 0 0 48 52 Z"/><path d="M 128 48 L 128 52 A 4 4 0 0 0 124 48 Z"/><path d="M 336 48 L 340 48 A 4 4 0 0 0 336 52 Z"/><path d="M 416 48 L 416 52 A 4 4 0 0 0 412 48 Z"/><path d="M 48 128 L 48 124 A 4 4 0 0 0 52 128 Z"/><path d="M 128 128 L 124 128 A 4 4 0 0 0 128 124 Z"/><path d="M 336 128 L 336 124 A 4 4 0 0 0 340 128 Z"/><path d="M 416 128 L 412 128 A 4 4 0 0 0 416 124 Z"/><path d="M 48 336 L 52 336 A 4 4 0 0 0 48 340 Z"/><path d="M 128 336 L 128 340 A 4 4 0 0 0 124 336 Z"/><path d="M 48 416 L 48 412 A 4 4 0 0 0 52 416 Z"/><path d="M 128 416 L 124 416 A 4 4 0 0 0 128 412 Z"/></g></svg>